<?xml version="1.0" standalone="no"?>
<!DOCTYPE svg PUBLIC "-//W3C//DTD SVG 20010904//EN"
 "http://www.w3.org/TR/2001/REC-SVG-20010904/DTD/svg10.dtd">
<svg version="1.0" xmlns="http://www.w3.org/2000/svg"
 width="289.000000pt" height="289.000000pt" viewBox="0 0 289.000000 289.000000"
 preserveAspectRatio="xMidYMid meet">

<g transform="translate(0.000000,289.000000) scale(0.100000,-0.100000)"
fill="#000000" stroke="none">
<path d="M1176 2808 c-12 -17 -16 -48 -16 -124 0 -122 8 -134 88 -134 l52 0 0
-49 c0 -54 0 -54 -75 -66 -72 -12 -238 -66 -310 -102 -116 -58 -205 -123 -311
-228 -177 -174 -284 -371 -335 -615 -21 -96 -18 -385 3 -475 60 -249 154 -421
322 -591 230 -233 519 -354 846 -354 327 0 616 121 846 354 167 169 262 344
322 591 21 90 24 379 3 475 -51 244 -157 439 -335 615 -106 105 -194 170 -311
228 -72 36 -238 90 -310 102 -75 12 -75 12 -75 66 l0 49 53 0 c79 0 87 13 87
136 0 154 20 144 -280 144 -246 0 -249 0 -264 -22z m517 -602 c169 -47 306
-126 431 -249 89 -88 121 -130 174 -227 209 -384 142 -848 -168 -1161 -181
-183 -420 -282 -685 -283 -175 -1 -307 30 -455 107 -374 194 -587 617 -516
1023 38 213 129 390 275 535 157 154 353 253 556 280 107 14 291 2 388 -25z"/>
<path d="M1885 1941 c-16 -10 -56 -45 -88 -78 l-57 -59 137 -143 138 -143 72
67 c78 71 100 115 82 162 -11 29 -150 182 -182 200 -32 18 -68 16 -102 -6z"/>
<path d="M1338 1422 c-186 -180 -344 -336 -351 -347 -17 -24 -170 -364 -188
-417 -7 -21 -9 -41 -5 -45 4 -4 36 2 70 15 84 29 343 137 382 159 39 22 704
662 704 677 0 6 -62 73 -137 148 l-138 136 -337 -326z m-233 -507 c49 -53 86
-97 84 -99 -7 -6 -198 -86 -205 -86 -4 0 -21 17 -39 37 l-32 37 44 93 c23 51
43 97 43 103 0 23 23 5 105 -85z"/>
</g>
</svg>
